# 3ds Max Wavefront OBJ Exporter v0.97b - (c)2007 guruware
# File Created: 01.02.2019 02:29:32

mtllib new_arrow2.mtl

#
# object Box002
#

v  0.0226 -0.0008 -0.7743
v  0.0706 -0.0008 -0.5452
v  0.0426 -0.1512 -0.4537
v  -0.0315 -0.0008 -0.5452
v  -0.0035 0.1515 -0.4537
v  0.0165 -0.0008 -0.7743
v  -0.0035 -0.1512 -0.4537
v  0.0426 0.1515 -0.4537
v  -0.0111 0.0021 -0.5519
v  0.0161 0.0292 -0.5519
v  0.0413 0.0040 -0.5519
v  0.0141 -0.0231 -0.5519
v  -0.0111 0.0021 0.6483
v  0.0141 -0.0231 0.6483
v  0.0413 0.0040 0.6483
v  0.0161 0.0292 0.6483
v  0.0139 0.0281 0.3338
v  0.0139 0.0281 0.6247
v  0.0139 0.1915 0.6247
v  0.0139 0.1915 0.3338
v  0.0139 -0.1835 0.3338
v  0.0139 -0.1835 0.6247
v  0.0139 -0.0201 0.6247
v  0.0139 -0.0201 0.3338
# 24 vertices

vn 0.5534 -0.4770 -0.6828
vn 0.9348 -0.0005 0.3551
vn 0.5192 -0.4778 0.7086
vn -0.9348 -0.0005 0.3551
vn -0.5195 0.4813 0.7061
vn -0.5535 0.4757 -0.6836
vn -0.5192 -0.4778 0.7086
vn -0.5825 -0.4719 -0.6618
vn 0.5195 0.4813 0.7061
vn 0.5827 0.4706 -0.6626
vn -0.8113 0.0000 -0.5847
vn 0.0000 0.8212 -0.5707
vn 0.8113 -0.0000 -0.5847
vn -0.0000 -0.8212 -0.5707
vn -0.8113 0.0000 0.5847
vn -0.0000 -0.8212 0.5707
vn 0.8113 -0.0000 0.5847
vn 0.0000 0.8212 0.5707
vn -1.0000 -0.0000 -0.0000
# 19 vertex normals

vt 1.0000 0.0000 0.0000
vt 0.0000 0.4965 0.0000
vt 0.0000 0.0000 0.0000
vt 1.0000 0.4844 0.0000
vt 1.0000 1.0000 0.0000
vt 0.0000 1.0000 0.0000
# 6 texture coords

o Box002
g Box002
usemtl wire_115115115
s 4
f 1/1/1 2/2/2 3/3/3 
s 8
f 4/4/4 5/5/5 6/6/6 
f 1/3/1 3/1/3 7/5/7 6/6/8 
s 32
f 8/3/9 1/1/10 6/5/6 5/6/5 
s 64
f 1/3/10 1/1/1 6/5/8 6/6/6 
s 4
f 6/6/6 6/3/8 7/1/7 4/4/4 
s 2
f 1/1/1 1/5/10 8/6/9 2/2/2 
s off
f 5/5/5 4/4/4 2/2/2 8/6/9 
f 3/3/3 2/2/2 4/4/4 7/1/7 
s 2
f 9/1/11 10/5/12 11/6/13 12/3/14 
s 4
f 13/3/15 14/1/16 15/5/17 16/6/18 
s 8
f 9/3/11 12/1/14 14/5/16 13/6/15 
s 16
f 12/3/14 11/1/13 15/5/17 14/6/16 
s 32
f 11/3/13 10/1/12 16/5/18 15/6/17 
s 64
f 10/3/12 9/1/11 13/5/15 16/6/18 
s 1
f 17/6/19 18/3/19 19/1/19 20/5/19 
f 21/6/19 22/3/19 23/1/19 24/5/19 
# 15 polygons - 2 triangles

